<svg width="24" height="24" viewBox="0 0 24 24" xmlns="http://www.w3.org/2000/svg" xmlns:xlink="http://www.w3.org/1999/xlink"><defs><path id="a" d="M.8523.6845h3.315V4H.8523z"/><path id="c" d="M.49.6845h3.315V4H.49z"/></defs><g fill="none" fill-rule="evenodd"><g transform="translate(2.6865 19.3581)"><mask id="b" fill="#fff"><use xlink:href="#a"/></mask><path d="M4.1673 2.3425c0 .915-.742 1.658-1.658 1.658-.915 0-1.657-.743-1.657-1.658 0-.915.742-1.658 1.657-1.658.916 0 1.658.743 1.658 1.658" fill="#222" mask="url(#b)"/></g><g transform="translate(16.6865 19.3581)"><mask id="d" fill="#fff"><use xlink:href="#c"/></mask><path d="M3.805 2.3425c0 .915-.742 1.658-1.658 1.658-.915 0-1.657-.743-1.657-1.658 0-.915.742-1.658 1.657-1.658.916 0 1.658.743 1.658 1.658" fill="#222" mask="url(#d)"/></g><path stroke="#222" stroke-width="2" stroke-linecap="square" d="M21.3335 16.8766H2.6865V3.3576h18.647"/></g></svg>
