<svg width="164" height="78" viewBox="0 0 164 78" xmlns="http://www.w3.org/2000/svg"><g fill="#636363" fill-rule="nonzero"><path d="M17.3256 64.6067H4.0462v13.5155h3.0065l.9123-8.1005c.2027-1.8 1.7246-3.1605 3.5354-3.1605h5.8252v-2.2545zm-1.0006.9992v.255l-4.8246.0003-.2164.0051c-2.2237.1044-4.0612 1.8099-4.3127 4.0435l-.8133 7.212H5.046v-11.516h11.279z"/><path d="M15.5563 48.498V24.3884H2.8036c-.9763 0-1.7674.7916-1.7674 1.7674v37.6828c0 .9765.7909 1.7673 1.7674 1.7673H82.81V49.2653H16.3236a.7668.7668 0 01-.7673-.7673zm-1 0l.0058.145c.0737.9086.8339 1.6223 1.7615 1.6223l65.4854-.0004v14.341H2.8036a.7668.7668 0 01-.7674-.7673V26.1558l.007-.104a.7676.7676 0 01.7604-.6634l11.7524-.0005.0003 23.11z"/><path d="M82.8098 50.2655v-11.934H16.3234c-.9757 0-1.7673.7911-1.7673 1.7674v8.3993c0 .9755.7918 1.7673 1.7673 1.7673h66.4864zM81.809 39.331v9.934l-65.4856.0006c-.4232 0-.7673-.3441-.7673-.7673v-8.3993l.007-.1042a.7676.7676 0 01.7603-.6632l65.4856-.0006zM21.4858 4.6611c.4741 4.488.7213 9.3074.7213 14.2598 0 4.9516-.2472 9.771-.7213 14.2588-.0747.7114.0607 1.4081.381 2.0215l.2012.3853.4095-.1456c6.7507-2.3998 16.7847-3.8206 27.6126-3.8206 12.2236 0 23.3796 1.8156 29.9244 4.7451l.6137.2827.234-.156c1.0898-.7274 1.7048-1.989 1.563-3.3283-.4728-4.4818-.7193-9.2952-.7193-14.2429 0-4.9486.2465-9.762.7193-14.243.2472-2.337-1.7863-4.2584-4.1041-3.8757-6.9243 1.1437-17.1444 1.8731-25.7319 1.8731-8.804 0-19.9263-.7561-27.0341-1.8952-2.2411-.3588-4.2055 1.4535-4.0842 3.6933l.015.1877zm3.9111-2.8936c7.1644 1.1482 18.3385 1.9078 27.1923 1.9078 8.639 0 18.9129-.7333 25.8948-1.8865 1.6657-.275 3.1245 1.1034 2.9468 2.784-.4767 4.5164-.7249 9.3649-.7249 14.3481 0 4.9823.2482 9.8307.7249 14.348l.0132.1919c.0245.7634-.2898 1.4746-.8417 1.9703l-.0803.0668-.4698-.208c-6.7356-2.8995-17.8362-4.6696-29.9621-4.6696l-.7443.0022c-10.1414.0606-19.55 1.3568-26.222 3.5414l-.5348.178-.0374-.1214a2.5773 2.5773 0 01-.0713-.936c.4778-4.523.7268-9.3773.7268-14.3636 0-4.987-.249-9.8415-.7268-14.3647-.1764-1.6728 1.2658-3.053 2.9166-2.7887z"/><path d="M50.0896 30.6206l-1.1502.0053c-15.8587.1464-29.4992 3.3115-33.8846 7.8584-.3062.3175-.0812.8471.3599.8471h66.8951a.5.5 0 00.5-.5v-1.858a.5.5 0 00-.2474-.4316c-6.1718-3.6124-18.6247-5.9212-32.4728-5.9212zm.6611 1.0018c12.9767.0697 24.6198 2.1866 30.7022 5.4443l.3561.1962v1.068H16.731l.085-.0649c5.1863-3.9175 18.3177-6.6454 33.2736-6.6454l.6611.0018zM22.659 11.2904v1H12.124a.7683.7683 0 00-.7538.6237l-.0123.0996-.5339 9.1592 11.835.0001v1H9.7647l.5949-10.2178c.0521-.8855.7493-1.5874 1.6182-1.6589l.1463-.006h10.535z"/><path d="M21.2222 22.1729h-8.0013c-5.9564 0-9.7536 1.0263-11.4178 2.5337-.3417.3096-.118.8773.343.8706l12.9175-.1887a.5.5 0 00.256-.075c.443-.2745.9259-.5287 1.4424-.7632.9915-.45 2.0582-.8068 3.1254-1.079a19.6878 19.6878 0 011.031-.2347l.3333-.062a4.001 4.001 0 01.0474-.0076c.6097-.095.5402-.9941-.077-.9941zm-3.7392 1l-.063.0236c-.3632.1367-.7211.2843-1.0712.4432l-.4092.1929a13.719 13.719 0 00-.7785.4118l-.2461.1455-10.984.161.1822-.0776c1.8948-.7869 4.9252-1.3004 9.1077-1.3004h4.2621zM160.288 64.6067h-13.2794v2.2545h5.8252c1.8109 0 3.3327 1.3605 3.5354 3.1605l.9124 8.1005h3.0064V64.6067zm-1.001.9992v11.516h-1.112l-.812-7.2121-.0293-.2145c-.3526-2.1984-2.2525-3.834-4.4999-3.834l-4.8258-.0004v-.255h11.279z"/><path d="M161.5308 24.3884H148.778V48.498a.7668.7668 0 01-.7673.7673H81.5243V65.606h80.0065c.9765 0 1.7673-.7908 1.7673-1.7673V26.1558c0-.9758-.7911-1.7674-1.7673-1.7674zM149.778 48.498V25.3879l11.7528.0005a.7675.7675 0 01.7673.7674v37.6828l-.007.1042a.7669.7669 0 01-.7603.6631H82.524V50.265l65.4867.0004c.9765 0 1.7673-.7908 1.7673-1.7673z"/><path d="M81.5244 38.3315v11.934h66.4864c.9755 0 1.7673-.7918 1.7673-1.7673v-8.3993c0-.9763-.7915-1.7674-1.7673-1.7674H81.5244zm.9996 10.9334v-9.934l65.4868.0006a.7675.7675 0 01.7673.7674v8.3993c0 .4232-.3441.7673-.7673.7673L82.524 49.265zM138.7792.78c-7.108 1.1392-18.2301 1.8953-27.0342 1.8953-8.5874 0-18.8076-.7294-25.7318-1.8731-2.318-.3827-4.3514 1.5388-4.1042 3.8758.4729 4.4808.7193 9.2943.7193 14.243 0 4.9476-.2464 9.761-.7193 14.243-.1418 1.3391.4733 2.6007 1.563 3.328l.234.1561.2549-.1188c6.4908-3.0255 17.8333-4.909 30.2832-4.909 10.5819 0 20.4054 1.357 27.1473 3.6585l.8748.3077.2012-.3853c.3203-.6134.4557-1.3101.381-2.0212-.4741-4.4882-.7213-9.3075-.7213-14.259 0-4.9525.2472-9.7719.7213-14.26.2452-2.325-1.766-4.2497-4.0692-3.881zm3.0747 3.776c-.4778 4.5234-.7268 9.3778-.7268 14.365 0 4.9862.249 9.8405.7268 14.3638l.0132.1919a2.5587 2.5587 0 01-.0845.7438l-.0376.1214-.5101-.17c-6.8364-2.2428-16.5538-3.5516-26.9908-3.5516l-.6852.0019c-11.8536.0653-22.6604 1.8216-29.2695 4.6645l-.4784.2112-.079-.0668c-.598-.537-.917-1.327-.8286-2.162.4767-4.5175.7249-9.366.7249-14.3482 0-4.9832-.2482-9.8317-.7249-14.348-.1777-1.6807 1.281-3.059 2.9468-2.784 6.982 1.1531 17.2558 1.8864 25.8948 1.8864 8.8539 0 20.0279-.7596 27.1924-1.9078 1.5957-.2555 2.9965 1.0257 2.9288 2.6224l-.0123.1662z"/><path d="M114.2446 30.6206c-13.8481 0-26.301 2.3088-32.4728 5.9212a.5.5 0 00-.2474.4316v1.858a.5.5 0 00.5.5h66.8952c.441 0 .666-.5296.3598-.847-4.491-4.6566-18.6887-7.8638-35.0348-7.8638zm0 1l.567.0013c14.72.068 27.586 2.7762 32.7066 6.6441l.0838.0649H82.524v-1.068l.352-.1934c6.1841-3.3145 18.1235-5.4489 31.3686-5.4489zM152.2101 11.2904c.8865 0 1.6276.6552 1.75 1.5193l.0146.1458.5948 10.2175h-12.8943v-1l11.8338-.0001-.5326-9.1589a.7687.7687 0 00-.6664-.7172l-.0999-.0064h-10.535v-1h10.535z"/><path d="M151.1134 22.1729h-8.0013c-.617 0-.6866.8992-.0768.994l.3807.0697.4917.1047c.1722.039.3524.0824.5393.13 1.0672.2722 2.1338.629 3.1253 1.079.5165.2345.9994.4887 1.4423.7633a.5.5 0 00.2561.0749l12.9176.1887c.461.0067.6846-.561.343-.8706-1.6643-1.5074-5.4615-2.5337-11.418-2.5337zm-4.2634 1h4.2634l.46.0021c3.9455.0363 6.8231.5406 8.6477 1.2983l.1809.0776-10.984-.161.1234.0736c-.4812-.2982-1.0018-.5723-1.5559-.8238a17.611 17.611 0 00-1.0711-.4432l-.0644-.0236zM82.9024 11.2906v1h-1.303v-1z"/></g></svg>
