<svg xmlns="http://www.w3.org/2000/svg" width="80" height="18" viewBox="0 0 80 18"><path d="M18.1767.1495v1.9401l-7.0836-.0009-1.305 2.799 3.7358.0001V6.828H4.7485a.7758.7758 0 00-.776.776l-.0004 2.7938 9.5565.001v1.94l-9.5565-.001.0003 5.51H.8683V6.4398c0-.8571.695-1.552 1.552-1.552l4.2298-.0002 1.305-2.799-7.86.0009v-1.94h18.0816zm-.7734 4.7383v11.4078c0 .8575-.695 1.552-1.552 1.552H4.759v-1.94h8.7641a.7758.7758 0 00.776-.7761V4.8878h3.1042zm48.5877.9842l-.001 10.0107 14.105.001v1.94H61.9972v-1.94l.889-.001v-8.021h-1.5183V5.872h4.6232zm-39.4314.0024l-.0005 1.6133h5.904l.0007-1.6133h3.1041l-.0008 1.6133 2.9945.0008v1.94l-3.0223-.0003a6.9847 6.9847 0 01-3.527 5.4523c1.9277.6413 3.9523.9745 5.9986.9745h.5506v1.94h-1.3274c-2.663 0-5.2886-.5635-7.7137-1.6392a19.0483 19.0483 0 01-7.731 1.6393H20.462V15.855h.5506a19.054 19.054 0 008.9764-2.247l.2173-.116a4.268 4.268 0 002.2575-3.765l-.0007-.2993h-5.904l.0005.2993c0 1.4277.7179 2.7433 1.8858 3.5303l.1881.1198a19.0218 19.0218 0 01-2.3936.9953c-1.5686-1.1813-2.5766-2.9752-2.7557-4.9437l-3.014-.0001V7.4885l2.9849-.0008.0003-1.6133h3.1042zm31.945-.0028l-.0005 9.9661.7695.0002v1.94H47.5788v-1.94l.0043-.0002.0009-8.8876c0-.5559.4204-1.0134.9604-1.072l.1175-.0063h5.9638V7.812h-3.9376v1.1658l3.9343.0008v1.94l-3.9343-.0008v1.212l3.9375.0006v1.9401l-3.9375-.0007v1.768H55.4l.0003-9.966h3.1042zm-12.8287.005l-.0001 9.9611h.7516v1.94h-3.8558l-.0005-9.962-1.3555.001v-1.94h4.4603zm31.4303 3.7255v2.7894c0 .4288.3473.776.776.776h1.8225v1.9401h-4.1506c-.8571 0-1.552-.6949-1.552-1.552V9.602h3.104zm-4.2682 0v3.9535c0 .8571-.695 1.552-1.552 1.552h-4.527v-1.94h2.1988a.7758.7758 0 00.776-.776V9.602h3.1042zM75.0465.1557l-.0004 2.071 3.9652.0003v1.94l-3.9652-.0003v2.331l4.6586.0002v1.94H67.2842v-1.94l4.6579-.0002v-2.331h-.861l.0007.7271h-3.1042V1.4156h3.1042l-.0007.8111h.861l.0003-2.071h3.1041zm-15.7659 1.265v3.4731h-3.1041l-.0004-1.361-5.8683.0008a.776.776 0 00-.769.6707l-.007.1053v.5844h-3.1042V2.9729c0-.8572.695-1.552 1.552-1.552l8.1965-.0002h3.1045zM31.1041 0v1.3757l7.4539.0008v3.5108h-3.1041V3.3166H24.3503a.7758.7758 0 00-.776.776v.795H20.47v-1.959c0-.8572.695-1.5521 1.5521-1.5521l5.9769-.0008L28 0h3.1041zm14.1594 1.4195v2.9854h-3.1042V1.4195h3.1042zm20.3154-.0039V4.405h-3.1041V1.4156h3.1041zM54.018-.2533v1.6728h-3.1041V-.2533h3.1041z" fill="#222" fill-rule="evenodd"/></svg>
